<svg width="175" height="80" fill="none" xmlns="http://www.w3.org/2000/svg"><g clip-path="url(#a)"><path d="M118.619 50.045v-3.373h-6.587c.446-1.038 1.811-2.179 3.622-3.89 2.311-2.18 2.938-3.217 2.938-5.969 0-2.88-1.234-5.136-5.747-5.136-3.989 0-5.983 1.843-5.983 5.526v.597h4.094c0-1.4 0-3.373 1.68-3.373 1.258 0 1.548.96 1.548 2.413 0 1.376-.054 2.128-3.228 4.93-1.548 1.376-4.199 3.944-4.199 8.278h11.862v-.003Zm9.622 0c.182-4.075 2.178-10.483 5.038-14.762V32.04h-11.835v3.685h7.612c-2.677 3.45-5.116 10.093-5.379 14.323h4.566l-.002-.003Zm13.925.363c5.538 0 6.088-4.099 6.114-9.366 0-5.914-.55-9.365-6.114-9.365-5.538 0-6.088 4.099-6.115 9.365 0 5.915.55 9.366 6.115 9.366Zm0-2.75c-1.444 0-1.691-1.304-1.704-6.047v-.542c0-5.24.209-6.642 1.706-6.642 1.498 0 1.707 1.4 1.707 6.642 0 5.19-.209 6.59-1.707 6.59h-.002Zm14.738 2.75c5.538 0 6.088-4.099 6.114-9.366 0-5.914-.55-9.365-6.114-9.365-5.538 0-6.088 4.099-6.115 9.365 0 5.915.55 9.366 6.115 9.366Zm0-2.75c-1.444 0-1.691-1.304-1.704-6.047v-.542c0-5.24.209-6.642 1.706-6.642 1.444 0 1.691 1.306 1.704 6.114v.528c0 5.19-.209 6.59-1.706 6.59Zm17.493 2.387V31.677h-3.096c-.209 1.168-.998 2.88-4.33 2.88h-.55v2.75h3.568v12.738h4.411-.003ZM49.957.142a22.245 22.245 0 0 0-4.524-.05c-.558-.051-1.22 0-1.88.05C31.07 1.105 19.78 7.87 13.095 18.39c.51-.051 1.118.152 1.625-.051a47.185 47.185 0 0 1 4.119-5.061c1.323-1.278 2.544-2.504 3.966-3.424l4.067 2.402c-1.575 1.995-3.203 3.987-4.373 6.134.357.152 1.017.101 1.526 0 1.272-1.891 2.643-3.782 4.272-5.47l6.56 2.302.204.205-1.272 2.965c.558.102.915.051 1.476 0l1.322-2.709c2.95.664 6.05 1.021 9.203 1.125.408.358.102 1.126.255 1.584h1.374c.153-.512-.051-1.074.153-1.533 2.948-.155 6.05-.461 8.897-1.176l.255.05 1.373 2.66c.46 0 1.068.1 1.425-.102l-1.272-2.965.102-.102c2.34-.613 4.527-1.533 6.764-2.453 1.575 1.685 3.051 3.68 4.374 5.621.558 0 1.119.051 1.526-.101a19.913 19.913 0 0 0-2.186-3.221 22.13 22.13 0 0 0-2.238-2.76v-.259l3.56-2.096.51-.205a37.6 37.6 0 0 1 8.033 8.536c.61 0 1.12.205 1.626-.051C73.498 7.809 62.261 1.113 50.11.142l-.051.101-.102-.101Zm5.237 2.301v.102c-4.424 3.272-11.593 3.578-16.27.562-.255-.205-.762-.306-.813-.664 5.39-1.277 11.747-1.381 17.086 0h-.003Zm13.982 6.235-.102.205-3.51 1.995h-.254c-2.694-2.76-5.847-5.163-9.05-7.053.102-.358.609-.614.965-.87 4.272 1.126 8.288 3.067 11.948 5.726l.003-.003ZM37.143 3.822c-3.153 1.995-6.254 4.344-9.101 7.208-1.374-.512-2.643-1.278-3.864-2.147v-.101c3.204-2.403 6.761-4.192 10.526-5.419.153-.152.255-.306.459-.306v.101c.408.101.71-.357 1.068-.05.305.255.66.46.914.714h-.002Zm26.694 7.717-.102.155c-1.983.87-4.017 1.688-6.204 2.146a86.523 86.523 0 0 0-5.237-8.023c.711-.408 1.575-.715 2.34-1.126 3.305 1.688 6.509 4.088 9.203 6.848ZM40.954 5.713l-.152.408c-1.932 2.453-3.459 5.111-4.983 7.717l-.204.05a40.276 40.276 0 0 1-6.05-2.096l.102-.306c2.796-2.71 5.744-4.957 8.999-6.696.762.307 1.526.563 2.288.92v.003Zm4.932.97c.153 2.659.05 5.725.05 8.536-1.424.205-2.693-.05-4.118-.152-1.373-.205-3.101-.357-4.475-.819 1.476-2.81 3.204-5.52 5.288-8.023l3.255.458Zm4.778-.408c1.983 2.555 3.915 5.163 5.238 7.973a35.567 35.567 0 0 1-8.39 1.022c-.102-2.71-.051-5.726 0-8.536l3.152-.459ZM28.04 24.728c-3.305 2.453-4.322 6.848-3.458 10.733.66 3.68 4.118 6.39 7.424 7.667 4.526 1.634 9.254 2.81 13.83 4.397.46.205 1.069.664.967 1.227 0 .461-.459.714-.813.92-4.779 1.328-9.965.306-13.423-3.374-.408-.512-.66-1.125-1.068-1.634l-6.864.05c-.102 4.142-.153 8.894 0 12.982l7.628-.051.102-2.454c.864.408 1.728.92 2.592 1.382 5.288 2.248 12.1 2.76 17.338 0 3.813-2.147 5.846-6.288 5.288-10.733-.558-4.344-4.625-8.28-8.744-9.355l-12.304-3.629-.915-.459c-.408-.357-.66-.818-.558-1.381.966-1.688 3.203-1.176 4.88-1.125 3.56.512 7.22 1.738 9.305 5.061 2.238 0 4.83.05 7.271-.05.102-4.193-.05-7.873-.102-12.115-2.457-.06-4.916-.043-7.373.05-.102.614.102 1.483-.153 2.096l-2.34-1.277c-5.596-2.405-13.425-2.661-18.51 1.072Zm61.625.56c-6.611-4.293-16.678-4.6-23.49-.715-3.711 1.942-6.153 5.776-6.915 9.712-1.373 6.49-1.017 14.21 3.864 19.067 5.696 5.111 13.981 6.234 21.354 4.14a9.51 9.51 0 0 0 2.225-.773l.217-.096a15.067 15.067 0 0 0 6.101-4.7c3.762-5.622 4.017-14.056 1.728-20.395-.915-2.453-2.796-4.65-5.084-6.234v-.006Zm-7.475 7.36c.762 1.176.71 2.71.864 4.088-.051 2.915.204 6.39-.306 9.354-.255 1.227-1.068 2.504-2.34 2.966-2.034.92-4.778.664-6.66-.408-1.577-1.126-1.778-3.016-1.982-4.806-.153-3.527-.408-7.258.558-10.477.762-1.994 2.847-2.504 4.73-2.658 1.983 0 3.915.306 5.136 1.941ZM3.279 22.222l-3.152.05c-.05 2.71-.05 5.877 0 8.637 1.728.051 3.357 0 5.034.152V48.44l-.051.714-5.034.102a116.56 116.56 0 0 0 0 8.434H22.5v-8.434c-1.677-.102-3.56.05-5.187-.152l.051-17.941.102-.155 5.034-.05c.05-2.915.102-6.032-.051-8.691l-19.168-.05v.005Zm32.238 39.255c-.51 0-1.068-.102-1.425.05l1.272 3.016-.153.152a61.583 61.583 0 0 0-6.713 2.403l-.204-.101c-1.425-1.584-2.796-3.323-3.915-5.059-.254-.87-1.271-.357-1.83-.461 1.221 2.248 2.847 4.242 4.476 6.288-1.374.818-2.745 1.738-4.17 2.402-3.05-2.352-5.897-5.418-8.033-8.637-.609-.101-1.016-.05-1.625 0 3.66 5.827 9.355 10.939 15.304 13.954 0 0 0-.05.05-.05.052 0 .154.101.052.154 4.016 1.992 8.288 3.424 12.811 4.038 15.61 2.096 30.507-4.702 39.151-18.093a8.722 8.722 0 0 0-1.626 0c-2.135 3.117-4.829 6.133-7.778 8.485-.102.152-.408.101-.51-.05-1.271-.82-2.642-1.483-3.863-2.302 1.626-1.995 3.204-3.987 4.424-6.184h-1.577c-1.272 1.89-2.592 3.885-4.272 5.57-2.237-.92-4.271-1.738-6.56-2.351l-.255-.206c.357-1.021 1.017-1.992 1.221-3.016h-1.374l-1.373 2.76c-3-.664-6.306-1.021-9.356-1.226-.153-.462.05-1.126-.153-1.534H46.19c-.102.614.153 1.072-.153 1.584a58.929 58.929 0 0 0-9.152 1.126l-1.373-2.71.005-.002Zm10.678 11.757c-1.067.256-2.237.256-3.254.512-2.085-2.504-3.813-5.213-5.288-8.024l.254-.205c2.643-.512 5.39-.92 8.237-.92l.051 8.637Zm10.016-7.616.051.152c-1.424 2.76-3.203 5.419-5.135 7.922-.864.105-1.68-.255-2.544-.306l-.864-.102c-.102-3.016-.153-5.674 0-8.687 2.898.05 5.796.357 8.492 1.021Zm-20.085.459c1.476 2.81 3.305 5.469 5.135 8.127-.71.408-1.575.664-2.288 1.075a34.3 34.3 0 0 1-9.254-6.848v-.154c1.982-.971 4.067-1.686 6.203-2.248l.204.05v-.002Zm27.965 2.146c-1.625 1.89-3.713 3.528-5.645 4.907-1.17.715-2.34 1.482-3.56 2.096l-2.187-.97.153-.358a62.079 62.079 0 0 0 4.88-7.768l.154-.104c2.186.512 4.27 1.227 6.203 2.197h.002Zm5.442 2.912c-2.847 2.301-6.153 3.835-9.51 5.112l-2.39.768c-.408-.205-.762-.512-1.119-.819l.102-.152a45.57 45.57 0 0 0 9-7.103c1.373.562 2.693 1.328 3.914 2.197l.003-.003Zm-32.237 5.061c-.255.307-.66.614-1.017.82-4.272-1.126-8.237-3.068-11.9-5.726v-.155c1.221-.768 2.442-1.584 3.762-2.146 2.898 2.911 5.898 5.111 9.152 7.207h.003Zm18.202 1.176c.153.307-.255.206-.357.307-5.39 1.176-11.39 1.227-16.78-.101-.102-.256.255-.307.408-.459 4.727-3.117 12.1-3.117 16.729.256v-.003Z" fill="#85858E"/></g><defs><clipPath id="a"><path fill="#fff" d="M0 0h174.4v80H0z"/></clipPath></defs></svg>