<svg width="176" height="80" fill="none" xmlns="http://www.w3.org/2000/svg"><g clip-path="url(#a)" fill="#85858E"><path d="M0 48.293h16.162V32.23H0v16.063Zm32.43 0H48.59V32.23H32.43v16.063ZM32.43 16.063H48.59V0H32.43v16.063ZM16.266 32.23H32.43V16.167H16.267V32.23ZM11.455 74.785v-4.007c-4.868.608-6.488 1.874-6.488 3.673 0 1.576 1.08 2.265 2.587 2.265 1.462 0 2.574-.71 3.904-1.93h-.003Zm-10.55-.013c0-3.818 3.186-5.81 10.553-6.593-.06-1.917-.833-3.513-3.259-3.513-1.784 0-3.463.798-5.042 1.757l-1.55-2.788c1.971-1.233 4.516-2.339 7.366-2.339 4.486 0 6.695 2.745 6.695 7.711v10.555h-3.452l-.323-1.976h-.118c-1.607 1.365-3.45 2.411-5.57 2.411C3.064 79.997.9 77.877.9 74.77M18.94 77.514l1.958-2.657c1.593 1.234 3.136 1.99 4.954 1.99 1.959 0 2.88-.914 2.88-2.134 0-1.495-1.945-2.163-3.857-2.889-2.354-.878-5.043-2.221-5.043-5.198 0-3.095 2.514-5.33 6.534-5.33 2.498 0 4.502 1.01 5.964 2.133l-1.93 2.572c-1.257-.916-2.52-1.554-3.93-1.554-1.805 0-2.66.857-2.66 1.976 0 1.407 1.811 1.946 3.756 2.656 2.426.9 5.145 2.062 5.145 5.389C32.711 77.53 30.27 80 25.74 80a11.272 11.272 0 0 1-6.797-2.483M34.688 77.514l1.959-2.657c1.593 1.234 3.135 1.99 4.954 1.99 1.958 0 2.88-.914 2.88-2.134 0-1.495-1.945-2.163-3.858-2.889-2.353-.878-5.043-2.221-5.043-5.198 0-3.095 2.515-5.33 6.534-5.33 2.498 0 4.503 1.01 5.964 2.133l-1.929 2.572c-1.257-.916-2.52-1.554-3.93-1.554-1.806 0-2.66.857-2.66 1.976 0 1.407 1.81 1.946 3.756 2.656 2.426.9 5.145 2.062 5.145 5.389 0 3.062-2.442 5.532-6.972 5.532a11.271 11.271 0 0 1-6.797-2.483M63.781 70.66c0-3.572-1.58-5.954-4.21-5.954s-4.21 2.382-4.21 5.954c0 3.573 1.58 5.925 4.21 5.925s4.21-2.352 4.21-5.925Zm-12.745 0c0-5.938 4.062-9.366 8.535-9.366s8.535 3.425 8.535 9.366c0 5.909-4.062 9.337-8.535 9.337s-8.535-3.425-8.535-9.337Zm20.06 0c0-5.938 4.224-9.366 9.003-9.366 2.28 0 3.947.87 5.247 2.005l-2.047 2.715c-.951-.828-1.857-1.308-2.982-1.308-2.894 0-4.895 2.382-4.895 5.954 0 3.573 1.972 5.925 4.763 5.925 1.402 0 2.69-.681 3.713-1.538l1.711 2.758a8.897 8.897 0 0 1-5.862 2.192c-4.895 0-8.653-3.425-8.653-9.337M89.16 79.562h4.21v-17.83h-4.21v17.83Zm-.48-23.32c0-1.41 1.11-2.368 2.6-2.368 1.491 0 2.6.958 2.6 2.368 0 1.378-1.109 2.366-2.6 2.366-1.49 0-2.6-.988-2.6-2.366ZM108.323 74.785v-4.007c-4.868.608-6.488 1.874-6.488 3.674 0 1.575 1.08 2.264 2.588 2.264 1.461 0 2.573-.71 3.903-1.93h-.003Zm-10.55-.013c0-3.818 3.187-5.81 10.553-6.592-.059-1.917-.833-3.514-3.259-3.514-1.783 0-3.463.798-5.042 1.757l-1.548-2.788c1.972-1.233 4.516-2.339 7.367-2.339 4.486 0 6.695 2.745 6.695 7.711v10.555h-3.45l-.322-1.976h-.116c-1.606 1.365-3.449 2.411-5.569 2.411-3.143 0-5.306-2.12-5.306-5.228l-.003.003Zm19.859-1.22v-8.494h-2.557v-3.14l2.778-.19.497-4.864h3.492v4.865h4.575v3.327h-4.575v8.485c0 2.099.819 3.13 2.542 3.13.615 0 1.343-.204 1.869-.406l.715 3.078c-.978.32-2.227.654-3.667.654-4.137 0-5.671-2.598-5.671-6.445M130.195 79.562h4.21v-17.83h-4.21v17.83Zm-.481-23.32c0-1.41 1.109-2.368 2.6-2.368s2.601.958 2.601 2.368c0 1.378-1.11 2.366-2.601 2.366-1.491 0-2.6-.988-2.6-2.366ZM151.329 70.66c0-3.572-1.579-5.954-4.209-5.954-2.631 0-4.21 2.382-4.21 5.954 0 3.573 1.579 5.925 4.21 5.925 2.63 0 4.209-2.352 4.209-5.925Zm-12.745 0c0-5.938 4.065-9.366 8.536-9.366 4.47 0 8.535 3.425 8.535 9.366 0 5.909-4.065 9.337-8.535 9.337-4.471 0-8.536-3.425-8.536-9.337Zm21.246-8.929h3.449l.322 2.411h.116c1.609-1.553 3.436-2.846 5.892-2.846 3.844 0 5.523 2.585 5.523 7.086v11.183h-4.21V68.922c0-2.932-.846-4.037-2.791-4.037-1.58 0-2.617.769-4.092 2.221v12.459h-4.209V61.73Zm-82.721-38.51c5.878 0 8.658-2.603 8.658-7.492 0-4.915-3.164-6.68-8.948-6.68h-4.922V23.22h5.214-.002ZM61.207.62h16.245c10.405 0 18.795 3.698 18.795 15.11 0 11.04-8.484 15.924-18.504 15.924h-5.844v15.938H61.21V.619h-.002Zm53.779 38.422c8.019 0 13.438-3.906 13.438-15.139 0-11.233-5.419-14.733-13.438-14.733h-2.028V39.04h2.028ZM102.268.617h13.368c14.44 0 23.744 7.137 23.744 23.282 0 16.146-9.304 23.692-23.147 23.692h-13.965V.617ZM146.161.62H176v8.907h-19.15v10.89h16.361v8.908H156.85v18.271h-10.689V.62Z"/></g><defs><clipPath id="a"><path fill="#fff" d="M0 0h176v80H0z"/></clipPath></defs></svg>