<svg width="239" height="80" fill="none" xmlns="http://www.w3.org/2000/svg"><g clip-path="url(#a)" fill="#85858E"><path d="M90.88 39.197a19.642 19.642 0 0 1-2.744-1.207 8.158 8.158 0 0 1-2.069-1.567 6.418 6.418 0 0 1-1.328-2.182 8.803 8.803 0 0 1-.455-3.05 8.749 8.749 0 0 1 .79-3.816 7.625 7.625 0 0 1 2.228-2.774 9.966 9.966 0 0 1 3.444-1.694 16.657 16.657 0 0 1 4.545-.574 22.774 22.774 0 0 1 4.3.372 34.79 34.79 0 0 1 4.207 1.117 14.463 14.463 0 0 1-1.439 4.841l-1.373-.506a10.829 10.829 0 0 0-1.487-.425 17.747 17.747 0 0 0-1.776-.275 21.374 21.374 0 0 0-2.25-.105c-.521 0-1.041.043-1.555.127a4.473 4.473 0 0 0-1.416.465c-.432.24-.79.583-1.036.995a3.252 3.252 0 0 0-.395 1.716c-.02.49.09.977.316 1.419a3 3 0 0 0 .854.975c.37.267.776.488 1.207.656.45.182.898.372 1.348.529l2.702.975c1.139.424 2.174.861 3.105 1.31.89.423 1.693.99 2.373 1.676a6.954 6.954 0 0 1 1.479 2.42 9.92 9.92 0 0 1 .558 3.516 9.195 9.195 0 0 1-.835 3.94 8.519 8.519 0 0 1-2.405 3.049 11.629 11.629 0 0 1-3.892 1.992 18.02 18.02 0 0 1-5.335.7c-.989 0-1.875-.026-2.654-.086a21.21 21.21 0 0 1-4.319-.76c-.69-.198-1.41-.439-2.16-.722.099-.864.264-1.72.495-2.562.24-.89.525-1.787.854-2.688 1.155.447 2.345.808 3.56 1.08a16.91 16.91 0 0 0 3.56.372c1.89 0 3.375-.331 4.453-.994 1.078-.663 1.619-1.672 1.622-3.027a3.45 3.45 0 0 0-.396-1.698 3.829 3.829 0 0 0-.989-1.143 6.182 6.182 0 0 0-1.372-.782 41.749 41.749 0 0 0-1.582-.615l-2.737-.99ZM109.735 22.847h18.36a12.921 12.921 0 0 1 0 5.25H116.32v6.61h9.362c.175.866.265 1.746.269 2.628 0 .895-.09 1.788-.269 2.666h-9.362v8.05h12.107c.179.852.269 1.717.269 2.585.003.896-.088 1.79-.269 2.67h-18.692v-30.46ZM155.002 47.545a16.271 16.271 0 0 1 1.53 4.956c-1.365.486-2.779.84-4.22 1.058a30.192 30.192 0 0 1-4.026.253 17.754 17.754 0 0 1-6.724-1.166 13.296 13.296 0 0 1-4.837-3.261 13.685 13.685 0 0 1-2.947-4.975 19.168 19.168 0 0 1-.992-6.27c-.01-2.14.351-4.267 1.067-6.297a14.479 14.479 0 0 1 2.994-5.02 13.478 13.478 0 0 1 4.814-3.302 16.782 16.782 0 0 1 6.502-1.188 29.262 29.262 0 0 1 3.983.253 18.35 18.35 0 0 1 3.935 1.065 8.917 8.917 0 0 1-.538 2.476c-.3.81-.631 1.623-.992 2.44a20.95 20.95 0 0 0-2.789-.723 16.95 16.95 0 0 0-2.879-.212c-2.879 0-5.092.882-6.637 2.647-1.545 1.765-2.317 4.385-2.317 7.86 0 6.889 3.104 10.334 9.314 10.337.979.01 1.957-.061 2.923-.212a20.237 20.237 0 0 0 2.836-.719ZM161.258 22.847c.551-.084 1.105-.14 1.661-.172a34.567 34.567 0 0 1 1.666-.04c.569 0 1.036 0 1.582.04.545.041 1.091.086 1.665.172v15.799a41.434 41.434 0 0 0 .201 4.427 8.925 8.925 0 0 0 .811 3.05c.35.752.949 1.376 1.709 1.78a6.163 6.163 0 0 0 2.855.573 6.035 6.035 0 0 0 2.836-.574 3.937 3.937 0 0 0 1.689-1.78c.443-.967.71-1.998.791-3.049.15-1.471.218-2.95.206-4.427v-15.8a20.388 20.388 0 0 1 1.708-.17c.523-.03 1.064-.041 1.583-.041.518 0 1.087 0 1.641.04.566.03 1.129.088 1.689.172v17.128a27.182 27.182 0 0 1-.538 5.645 10.682 10.682 0 0 1-1.934 4.383 9.06 9.06 0 0 1-3.734 2.818c-1.558.663-3.536.994-5.933.994-2.396 0-4.374-.331-5.932-.994a9.05 9.05 0 0 1-3.738-2.819 10.733 10.733 0 0 1-1.938-4.382 27.567 27.567 0 0 1-.538-5.656l-.008-17.117ZM191.942 22.847c1.319-.142 2.557-.266 3.714-.372a46.25 46.25 0 0 1 3.848-.15 28.046 28.046 0 0 1 4.881.425c1.532.252 3.005.756 4.351 1.49a8.735 8.735 0 0 1 3.128 2.923c.791 1.228 1.187 2.788 1.187 4.68a9.07 9.07 0 0 1-.451 2.979 8.863 8.863 0 0 1-1.147 2.267 9.53 9.53 0 0 1-1.507 1.672c-.474.415-.986.79-1.531 1.117l-.763.466 7.875 12.876c-.602.056-1.23.115-1.891.171a24.06 24.06 0 0 1-2.025.086c-1.13 0-2.258-.085-3.374-.257l-8.464-14.109 1.08-.506c.419-.197.93-.45 1.531-.745a9.605 9.605 0 0 0 1.74-1.176 6.373 6.373 0 0 0 1.416-1.695c.4-.727.593-1.538.562-2.357 0-1.78-.541-3.086-1.622-3.92a6.665 6.665 0 0 0-4.185-1.248 11.593 11.593 0 0 0-1.799.127v25.715c-.538.055-1.08.104-1.618.145-.538.04-1.068.067-1.582.067s-1.052 0-1.621-.045c-.57-.045-1.155-.086-1.757-.167l.024-30.459ZM219.122 22.847h18.36a12.921 12.921 0 0 1 0 5.25h-11.79v6.61h9.357a12.995 12.995 0 0 1 0 5.295h-9.357v8.05h12.102c.181.85.271 1.716.269 2.584.005.896-.085 1.79-.269 2.67h-18.672v-30.46ZM86.581 68.96a9.082 9.082 0 0 1-1.253-.552 3.659 3.659 0 0 1-.946-.719 2.94 2.94 0 0 1-.609-.997 4.049 4.049 0 0 1-.213-1.393c-.014-.6.11-1.195.36-1.746a3.46 3.46 0 0 1 1.016-1.266 4.583 4.583 0 0 1 1.582-.779 7.753 7.753 0 0 1 2.076-.26c.664-.004 1.327.055 1.978.175.653.126 1.297.294 1.926.502a6.607 6.607 0 0 1-.66 2.209l-.63-.231a5.054 5.054 0 0 0-.675-.194 8.215 8.215 0 0 0-.815-.127c-.342-.033-.685-.049-1.029-.048-.237 0-.474.02-.707.06a1.964 1.964 0 0 0-.65.212c-.197.109-.361.266-.474.454a1.489 1.489 0 0 0-.186.786c-.02.424.179.832.534 1.094.17.126.358.23.558.31.206.085.395.163.617.242l1.234.446c.522.194.997.395 1.42.6.406.192.772.452 1.08.767.309.324.544.704.692 1.117.176.517.259 1.058.245 1.601a4.198 4.198 0 0 1-.396 1.799 3.862 3.862 0 0 1-1.103 1.396 5.29 5.29 0 0 1-1.78.912c-.788.23-1.61.341-2.436.328-.455 0-.859 0-1.214-.037a10.551 10.551 0 0 1-1.02-.127 10.807 10.807 0 0 1-1.943-.555 7.43 7.43 0 0 1 .226-1.169c.11-.41.24-.82.395-1.233.527.207 1.07.373 1.626.496a7.782 7.782 0 0 0 1.645.141 3.871 3.871 0 0 0 2.037-.454c.493-.303.776-.832.74-1.385.009-.268-.05-.534-.174-.775a1.805 1.805 0 0 0-.451-.525 2.798 2.798 0 0 0-.63-.372c-.233-.097-.474-.19-.72-.28l-1.273-.424ZM97.387 68.96a9.123 9.123 0 0 1-1.238-.552 3.728 3.728 0 0 1-.945-.719 2.878 2.878 0 0 1-.605-.997c-.156-.45-.23-.92-.218-1.393-.013-.6.11-1.195.36-1.746.232-.49.581-.924 1.02-1.266a4.532 4.532 0 0 1 1.583-.779 7.767 7.767 0 0 1 2.08-.26 10.6 10.6 0 0 1 1.978.175c.652.126 1.294.294 1.922.502a6.607 6.607 0 0 1-.657 2.209l-.629-.231a5.067 5.067 0 0 0-.68-.194 8.129 8.129 0 0 0-.811-.127 10.55 10.55 0 0 0-1.032-.048c-.237 0-.474.02-.708.06a1.992 1.992 0 0 0-.649.212c-.197.11-.36.267-.474.454a1.487 1.487 0 0 0-.182.786c-.008.223.041.445.142.648.096.174.23.327.396.447.168.126.355.23.553.308.206.086.396.164.617.243l1.238.446c.519.194.993.395 1.42.6.405.194.771.454 1.08.767.306.325.54.705.688 1.117.18.516.264 1.058.249 1.601a4.192 4.192 0 0 1-.395 1.799 3.886 3.886 0 0 1-1.1 1.396 5.36 5.36 0 0 1-1.779.912c-.79.23-1.614.341-2.44.328-.452 0-.855 0-1.215-.037-.34-.026-.68-.068-1.016-.127-.325-.06-.641-.134-.958-.223-.316-.09-.644-.201-.988-.332.047-.394.123-.784.225-1.169.11-.41.241-.82.396-1.233.526.206 1.07.372 1.625.496a7.838 7.838 0 0 0 1.626.164 3.863 3.863 0 0 0 2.037-.455c.494-.302.777-.83.743-1.385a1.532 1.532 0 0 0-.178-.774 1.695 1.695 0 0 0-.451-.525 2.79 2.79 0 0 0-.629-.373c-.233-.097-.47-.19-.72-.279l-1.28-.447ZM106.009 61.482a9.597 9.597 0 0 1 1.46-.119c.503.002 1.006.042 1.503.12v11.486h5.141c.042.208.07.418.083.63v1.18a4.659 4.659 0 0 1-.083.633h-8.104v-13.93ZM120.671 61.482h8.397c.082.39.123.785.122 1.18.003.41-.038.82-.122 1.222h-5.383v3.02h4.279a6.081 6.081 0 0 1 0 2.424h-4.279v3.679h5.537a5.836 5.836 0 0 1 0 2.405h-8.551v-13.93ZM131.607 61.482c.4-.076.806-.116 1.214-.119a7.26 7.26 0 0 1 1.274.12l5.723 8.872v-8.873a9.084 9.084 0 0 1 1.42-.119c.414 0 .828.04 1.234.12v13.925c-.392.071-.789.11-1.187.116a7.769 7.769 0 0 1-1.254-.116l-5.762-8.854v8.854a7.994 7.994 0 0 1-1.337.116 7.57 7.57 0 0 1-1.317-.116l-.008-13.926ZM155.128 72.776c.177.36.324.734.439 1.117.118.378.205.764.261 1.154-.623.222-1.269.385-1.926.484-.611.08-1.227.119-1.843.116a8.179 8.179 0 0 1-3.066-.533 6.092 6.092 0 0 1-2.211-1.49 6.238 6.238 0 0 1-1.348-2.274 8.78 8.78 0 0 1-.451-2.867 8.568 8.568 0 0 1 .471-2.879 6.667 6.667 0 0 1 1.368-2.294 6.16 6.16 0 0 1 2.203-1.511 7.705 7.705 0 0 1 2.974-.544c.609-.002 1.217.037 1.82.116a8.374 8.374 0 0 1 1.803.487 4.024 4.024 0 0 1-.249 1.117c-.138.373-.289.745-.451 1.117a9.183 9.183 0 0 0-1.277-.327 7.56 7.56 0 0 0-1.317-.097c-1.319 0-2.33.403-3.034 1.21-.704.807-1.057 2.005-1.06 3.593 0 3.15 1.42 4.725 4.26 4.725a7.88 7.88 0 0 0 1.336-.096 9.016 9.016 0 0 0 1.298-.324ZM158.213 61.482c.605-.067 1.186-.119 1.697-.167.51-.049 1.115-.067 1.76-.067.749 0 1.497.065 2.234.193.697.12 1.366.353 1.978.69a3.979 3.979 0 0 1 1.428 1.336c.388.653.577 1.394.545 2.141a4.1 4.1 0 0 1-.205 1.367 4.208 4.208 0 0 1-1.214 1.802c-.216.19-.45.362-.7.51l-.348.216 3.599 5.887-.863.078a10.107 10.107 0 0 1-2.468-.078l-3.852-6.468.495-.235c.193-.089.427-.204.7-.35.284-.148.549-.327.791-.532.26-.221.478-.483.644-.775.489-.955.302-2.095-.47-2.867a3.062 3.062 0 0 0-1.915-.57 5.539 5.539 0 0 0-.822.056v11.76c-.249.022-.495.048-.744.066-.249.02-.486.03-.72.03-.233 0-.478 0-.739-.022-.261-.023-.53-.037-.791-.075l-.02-13.926ZM173.606 70.43l-4.611-8.937a12.88 12.88 0 0 1 1.728-.119c.53 0 1.059.04 1.582.12l2.923 6.33 2.879-6.33a10.24 10.24 0 0 1 1.563-.12c.529.004 1.058.044 1.582.12l-4.608 8.936v5a9.452 9.452 0 0 1-.791.079h-1.471c-.254 0-.511-.041-.792-.078l.016-5.001ZM182.885 61.423c.633-.052 1.27-.093 1.915-.127a37.703 37.703 0 0 1 1.957-.048c.7.002 1.398.067 2.085.193.683.12 1.333.367 1.914.726.589.38 1.068.891 1.392 1.49.387.768.57 1.612.534 2.461a4.914 4.914 0 0 1-.534 2.45 4.183 4.183 0 0 1-1.38 1.49 5.178 5.178 0 0 1-1.883.744c-.674.128-1.361.193-2.049.194h-.502c-.158 0-.308 0-.443-.026v4.468a7.943 7.943 0 0 1-.763.075c-.245 0-.487.022-.72.022-.233 0-.459 0-.72-.022-.261-.023-.526-.038-.791-.075l-.012-14.015Zm3.006 7.168c.153.025.308.039.463.04h.526c.341 0 .68-.043 1.008-.126.319-.081.617-.223.875-.417.263-.207.47-.47.605-.767a2.71 2.71 0 0 0 .225-1.17 2.915 2.915 0 0 0-.225-1.213 2.13 2.13 0 0 0-1.48-1.218 4.018 4.018 0 0 0-1.008-.126h-.423l-.566.048v4.949ZM197.764 63.884h-3.682a5.769 5.769 0 0 1 0-2.402h10.39c.083.39.124.785.123 1.18.002.41-.039.82-.123 1.222h-3.682v11.543c-.249.022-.494.048-.743.067a9.68 9.68 0 0 1-.72.03c-.234 0-.483 0-.752-.023-.269-.022-.538-.037-.811-.074V63.884ZM206.549 61.482a9.892 9.892 0 0 1 1.503-.119c.51.002 1.019.042 1.522.12v13.925a9.967 9.967 0 0 1-3.025 0V61.482ZM218.485 75.643a7.008 7.008 0 0 1-2.879-.544 5.324 5.324 0 0 1-1.978-1.49 6.329 6.329 0 0 1-1.162-2.267c-.267-.931-.4-1.891-.396-2.856-.003-.972.13-1.94.396-2.878a6.41 6.41 0 0 1 1.162-2.294 5.268 5.268 0 0 1 1.978-1.512 7.898 7.898 0 0 1 5.759 0 5.264 5.264 0 0 1 1.977 1.512 6.396 6.396 0 0 1 1.163 2.294c.266.939.399 1.906.396 2.878.004.965-.129 1.925-.396 2.856a6.347 6.347 0 0 1-1.163 2.268 5.313 5.313 0 0 1-1.977 1.49 7.013 7.013 0 0 1-2.88.543Zm0-2.365c2.128 0 3.191-1.6 3.188-4.803 0-1.601-.264-2.803-.791-3.604-.497-.792-1.422-1.255-2.397-1.2-2.151 0-3.228 1.602-3.231 4.804-.003 3.202 1.074 4.803 3.231 4.803ZM227.396 61.482c.4-.076.806-.116 1.214-.119a7.26 7.26 0 0 1 1.274.12l5.723 8.872v-8.873a9.084 9.084 0 0 1 1.42-.119c.414 0 .828.04 1.234.12v13.925c-.391.071-.788.11-1.187.116a7.78 7.78 0 0 1-1.254-.116l-5.762-8.854v8.854a7.994 7.994 0 0 1-1.337.116 7.57 7.57 0 0 1-1.317-.116l-.008-13.926ZM34.98 0c7.45 0 13.846 2.5 19.19 7.5 5.345 5 8.016 10.985 8.016 17.954v10.91h1.942c1.62 0 2.996.53 4.13 1.59 1.135 1.061 1.703 2.35 1.702 3.864v32.728c0 1.514-.567 2.803-1.7 3.864-1.134 1.06-2.51 1.59-4.13 1.59H5.83c-1.619 0-2.996-.53-4.13-1.59C.567 77.349 0 76.06 0 74.546V41.819c0-1.516.567-2.805 1.7-3.864 1.134-1.061 2.511-1.591 4.13-1.591h1.943v-10.91c0-6.97 2.671-12.954 8.016-17.954 5.344-5 11.74-7.5 19.19-7.5Zm11.367 48.388c-1.349-1.001-3.327-.8-4.41.457l-9.858 11.5-3.895-5.444c-.453-.645-1.169-1.094-1.987-1.247a3.328 3.328 0 0 0-2.36.434c-1.442.896-1.83 2.709-.871 4.054l6.27 8.777c.55.772 1.472 1.255 2.477 1.298h.132c.953-.009 1.853-.409 2.446-1.093l12.543-14.625c1.08-1.263.86-3.11-.487-4.111ZM34.98 10.91c-4.291 0-7.955 1.42-10.992 4.26-3.036 2.841-4.555 6.27-4.555 10.284v10.91h31.093v-10.91c0-4.015-1.518-7.443-4.554-10.283-3.037-2.841-6.7-4.261-10.992-4.261Z"/></g><defs><clipPath id="a"><path fill="#fff" d="M0 0h238.261v80H0z"/></clipPath></defs></svg>